<svg xmlns="http://www.w3.org/2000/svg" version="1.1" xmlns:xlink="http://www.w3.org/1999/xlink" xml:space="preserve" xmlns:serif="http://www.serif.com/" style="fill-rule:evenodd;clip-rule:evenodd;stroke-linejoin:round;stroke-miterlimit:2;" viewBox="-0.1 -0.08 2000.23 2000.23" width="2000.23" height="2000.23"><g transform="matrix(1,0,0,1,-9944.47222,-2837.659248)">
        <g id="rm-white-new" transform="matrix(1,0,0,1,5844.47222,2837.659248)">
            <rect x="4100" y="0" width="2000" height="2000" style="fill:none;"></rect>
            <clipPath id="_clip1">
                <rect x="4100" y="0" width="2000" height="2000"></rect>
            </clipPath>
            <g clip-path="url(#_clip1)">
                <g transform="matrix(13.382379,0,0,13.382379,-42999.820848,-61366.995488)">
                    <path d="M3562.589,4610.341L3567.747,4601.406L3578.705,4601.406C3579.515,4599.21 3580.542,4597.25 3581.787,4595.529C3582.074,4595.132 3582.373,4594.748 3582.683,4594.376C3585.118,4591.459 3588.014,4589.276 3591.37,4587.828C3594.726,4586.381 3598.291,4585.657 3602.064,4585.657C3602.238,4585.657 3602.411,4585.658 3602.584,4585.661C3605.479,4585.711 3608.173,4586.176 3610.667,4587.056C3611.847,4587.472 3612.983,4587.982 3614.074,4588.585C3617.605,4590.537 3620.391,4593.367 3622.431,4597.074C3622.745,4597.645 3623.035,4598.235 3623.3,4598.844C3624.113,4597.193 3625.074,4595.704 3626.182,4594.376C3628.617,4591.459 3631.513,4589.276 3634.869,4587.828C3638.225,4586.381 3641.79,4585.657 3645.563,4585.657C3650.038,4585.657 3654.041,4586.633 3657.573,4588.585C3661.104,4590.537 3663.89,4593.367 3665.93,4597.074C3667.97,4600.782 3668.99,4605.311 3668.99,4610.664L3668.99,4735.107L3649.314,4735.107L3649.314,4614.415C3649.314,4610.247 3648.195,4607.143 3645.958,4605.103C3643.72,4603.063 3640.956,4602.043 3637.666,4602.043C3635.165,4602.043 3633.004,4602.58 3631.184,4603.655C3629.363,4604.73 3627.959,4606.233 3626.972,4608.163C3625.985,4610.093 3625.491,4612.375 3625.491,4615.007L3625.491,4735.107L3605.815,4735.107L3605.815,4614.415C3605.815,4610.247 3604.696,4607.143 3602.458,4605.103C3600.319,4603.153 3597.699,4602.135 3594.598,4602.049C3592.441,4602.109 3590.488,4602.634 3588.737,4603.622C3586.873,4604.675 3585.392,4606.222 3584.295,4608.262C3583.199,4610.302 3582.65,4612.813 3582.65,4615.797L3582.65,4735.107L3562.974,4735.107L3562.974,4613.823C3562.974,4612.573 3562.845,4611.413 3562.589,4610.341ZM3558.207,4603.93C3557.523,4603.467 3556.79,4603.09 3556.006,4602.797C3554.659,4602.294 3553.165,4602.043 3551.523,4602.043C3549.198,4602.043 3547.103,4602.569 3545.238,4603.622C3543.374,4604.675 3541.893,4606.222 3540.796,4608.262C3539.699,4610.302 3539.151,4612.813 3539.151,4615.797L3539.151,4735.107L3519.54,4735.107L3519.54,4586.516L3538.644,4586.516L3538.644,4599.142L3539.305,4599.142C3539.405,4598.804 3539.51,4598.473 3539.621,4598.149C3540.966,4594.188 3543.064,4591.158 3545.915,4589.061C3549,4586.791 3552.658,4585.657 3556.888,4585.657C3557.376,4585.657 3557.873,4585.666 3558.38,4585.685C3558.768,4585.666 3559.159,4585.657 3559.552,4585.657C3562.131,4585.657 3564.486,4586.051 3566.618,4586.841C3568.837,4587.663 3570.814,4588.914 3572.549,4590.592C3573.674,4591.681 3574.69,4592.952 3575.596,4594.406L3563.705,4594.406L3558.207,4603.93Z" style="fill:rgb(145,142,139);"></path>
                </g>
            </g>
        </g>
    </g></svg>