<?xml version="1.0" encoding="UTF-8" standalone="no"?>
<!DOCTYPE svg PUBLIC "-//W3C//DTD SVG 1.1//EN" "http://www.w3.org/Graphics/SVG/1.1/DTD/svg11.dtd">
<svg width="100%" height="100%" viewBox="0 0 1080 214" version="1.1" xmlns="http://www.w3.org/2000/svg" xmlns:xlink="http://www.w3.org/1999/xlink" xml:space="preserve" xmlns:serif="http://www.serif.com/" style="fill-rule:evenodd;clip-rule:evenodd;stroke-linejoin:round;stroke-miterlimit:2;">
    <g transform="matrix(1,0,0,1,-4640,-10246.132078)">
        <g transform="matrix(3.464,0,0,1.748,-14202.4,7460.787558)">
            <g id="xerme" transform="matrix(0.229483,0,0,0.454766,4877.439277,1199.6965)">
                <g transform="matrix(9.624493,0,0,9.624493,-528.818091,-4416.771138)">
                    <g transform="matrix(50,0,0,50,308.542734,576.214405)">
                        <path d="M0.018,-0L0.228,-0.328L0.227,-0.226L0.028,-0.539L0.186,-0.539L0.235,-0.456C0.25,-0.429 0.264,-0.403 0.276,-0.377C0.288,-0.351 0.301,-0.326 0.313,-0.301L0.26,-0.301C0.273,-0.326 0.286,-0.351 0.298,-0.377C0.31,-0.403 0.324,-0.429 0.34,-0.456L0.39,-0.539L0.545,-0.539L0.343,-0.224L0.343,-0.326L0.553,-0L0.396,-0L0.337,-0.098C0.322,-0.124 0.308,-0.15 0.295,-0.176C0.283,-0.202 0.27,-0.227 0.257,-0.251L0.31,-0.251C0.297,-0.227 0.285,-0.202 0.272,-0.176C0.26,-0.15 0.247,-0.124 0.231,-0.098L0.173,-0L0.018,-0Z" style="fill:#28BD75;fill-rule:nonzero;"/>
                    </g>
                    <g transform="matrix(50,0,0,50,333.959726,576.214405)">
                        <path d="M0.304,0.011C0.249,0.011 0.202,-0.001 0.162,-0.023C0.122,-0.046 0.091,-0.078 0.07,-0.12C0.048,-0.162 0.037,-0.211 0.037,-0.267C0.037,-0.323 0.048,-0.372 0.069,-0.413C0.091,-0.455 0.121,-0.488 0.16,-0.511C0.199,-0.535 0.245,-0.547 0.297,-0.547C0.333,-0.547 0.367,-0.541 0.398,-0.529C0.429,-0.518 0.456,-0.5 0.479,-0.477C0.503,-0.454 0.521,-0.426 0.533,-0.391C0.546,-0.357 0.553,-0.317 0.553,-0.272L0.553,-0.232L0.095,-0.232L0.095,-0.324L0.482,-0.324L0.414,-0.3C0.414,-0.328 0.41,-0.352 0.401,-0.373C0.392,-0.393 0.379,-0.409 0.362,-0.42C0.345,-0.431 0.324,-0.437 0.299,-0.437C0.274,-0.437 0.252,-0.431 0.235,-0.42C0.217,-0.409 0.204,-0.393 0.195,-0.373C0.185,-0.353 0.181,-0.33 0.181,-0.305L0.181,-0.24C0.181,-0.21 0.186,-0.184 0.196,-0.163C0.207,-0.142 0.221,-0.126 0.24,-0.115C0.26,-0.104 0.282,-0.099 0.307,-0.099C0.324,-0.099 0.34,-0.101 0.354,-0.106C0.368,-0.111 0.38,-0.119 0.39,-0.128C0.4,-0.138 0.408,-0.15 0.413,-0.164L0.545,-0.145C0.537,-0.113 0.522,-0.086 0.5,-0.063C0.478,-0.039 0.45,-0.021 0.417,-0.009C0.384,0.004 0.347,0.011 0.304,0.011Z" style="fill:#28BD75;fill-rule:nonzero;"/>
                    </g>
                </g>
                <g transform="matrix(9.624493,0,0,9.624493,572.260848,-4416.771138)">
                    <g transform="matrix(50,0,0,50,308.542734,576.214405)">
                        <path d="M0.304,0.011C0.249,0.011 0.202,-0.001 0.162,-0.023C0.122,-0.046 0.091,-0.078 0.07,-0.12C0.048,-0.162 0.037,-0.211 0.037,-0.267C0.037,-0.323 0.048,-0.372 0.069,-0.413C0.091,-0.455 0.121,-0.488 0.16,-0.511C0.199,-0.535 0.245,-0.547 0.297,-0.547C0.333,-0.547 0.367,-0.541 0.398,-0.529C0.429,-0.518 0.456,-0.5 0.479,-0.477C0.503,-0.454 0.521,-0.426 0.533,-0.391C0.546,-0.357 0.553,-0.317 0.553,-0.272L0.553,-0.232L0.095,-0.232L0.095,-0.324L0.482,-0.324L0.414,-0.3C0.414,-0.328 0.41,-0.352 0.401,-0.373C0.392,-0.393 0.379,-0.409 0.362,-0.42C0.345,-0.431 0.324,-0.437 0.299,-0.437C0.274,-0.437 0.252,-0.431 0.235,-0.42C0.217,-0.409 0.204,-0.393 0.195,-0.373C0.185,-0.353 0.181,-0.33 0.181,-0.305L0.181,-0.24C0.181,-0.21 0.186,-0.184 0.196,-0.163C0.207,-0.142 0.221,-0.126 0.24,-0.115C0.26,-0.104 0.282,-0.099 0.307,-0.099C0.324,-0.099 0.34,-0.101 0.354,-0.106C0.368,-0.111 0.38,-0.119 0.39,-0.128C0.4,-0.138 0.408,-0.15 0.413,-0.164L0.545,-0.145C0.537,-0.113 0.522,-0.086 0.5,-0.063C0.478,-0.039 0.45,-0.021 0.417,-0.009C0.384,0.004 0.347,0.011 0.304,0.011Z" style="fill:#28BD75;fill-rule:nonzero;"/>
                    </g>
                </g>
                <g transform="matrix(3.634223,0,0,3.634223,-9807.579296,-15799.469813)">
                    <path d="M3562.589,4610.341L3567.747,4601.406L3578.705,4601.406C3579.515,4599.21 3580.542,4597.25 3581.787,4595.529C3582.074,4595.132 3582.373,4594.748 3582.683,4594.376C3585.118,4591.459 3588.014,4589.276 3591.37,4587.828C3594.726,4586.381 3598.291,4585.657 3602.064,4585.657C3602.238,4585.657 3602.411,4585.658 3602.584,4585.661C3605.479,4585.711 3608.173,4586.176 3610.667,4587.056C3611.847,4587.472 3612.983,4587.982 3614.074,4588.585C3617.605,4590.537 3620.391,4593.367 3622.431,4597.074C3622.745,4597.645 3623.035,4598.235 3623.3,4598.844C3624.113,4597.193 3625.074,4595.704 3626.182,4594.376C3628.617,4591.459 3631.513,4589.276 3634.869,4587.828C3638.225,4586.381 3641.79,4585.657 3645.563,4585.657C3650.038,4585.657 3654.041,4586.633 3657.573,4588.585C3661.104,4590.537 3663.89,4593.367 3665.93,4597.074C3667.97,4600.782 3668.99,4605.311 3668.99,4610.664L3668.99,4659.493L3649.314,4659.493L3649.314,4614.415C3649.314,4610.247 3648.195,4607.143 3645.958,4605.103C3643.72,4603.063 3640.956,4602.043 3637.666,4602.043C3635.165,4602.043 3633.004,4602.58 3631.184,4603.655C3629.363,4604.73 3627.959,4606.233 3626.972,4608.163C3625.985,4610.093 3625.491,4612.375 3625.491,4615.007L3625.491,4659.493L3605.815,4659.493L3605.815,4614.415C3605.815,4610.247 3604.696,4607.143 3602.458,4605.103C3600.319,4603.153 3597.699,4602.135 3594.598,4602.049C3592.441,4602.109 3590.488,4602.634 3588.737,4603.622C3586.873,4604.675 3585.392,4606.222 3584.295,4608.262C3583.199,4610.302 3582.65,4612.813 3582.65,4615.797L3582.65,4659.493L3562.974,4659.493L3562.974,4613.823C3562.974,4612.573 3562.845,4611.413 3562.589,4610.341ZM3558.207,4603.93C3557.523,4603.467 3556.79,4603.09 3556.006,4602.797C3554.659,4602.294 3553.165,4602.043 3551.523,4602.043C3549.198,4602.043 3547.103,4602.569 3545.238,4603.622C3543.374,4604.675 3541.893,4606.222 3540.796,4608.262C3539.699,4610.302 3539.151,4612.813 3539.151,4615.797L3539.151,4659.493L3519.54,4659.493L3519.54,4586.516L3538.644,4586.516L3538.644,4599.142L3539.305,4599.142C3539.405,4598.804 3539.51,4598.473 3539.621,4598.149C3540.966,4594.188 3543.064,4591.158 3545.915,4589.061C3549,4586.791 3552.658,4585.657 3556.888,4585.657C3557.376,4585.657 3557.873,4585.666 3558.38,4585.685C3558.768,4585.666 3559.159,4585.657 3559.552,4585.657C3562.131,4585.657 3564.486,4586.051 3566.618,4586.841C3568.837,4587.663 3570.814,4588.914 3572.549,4590.592C3573.674,4591.681 3574.69,4592.952 3575.596,4594.406L3563.705,4594.406L3558.207,4603.93Z" style="fill:#28BD75;"/>
                </g>
            </g>
        </g>
    </g>
</svg>
