<?xml version="1.0" encoding="UTF-8" standalone="no"?>
<!DOCTYPE svg PUBLIC "-//W3C//DTD SVG 1.1//EN" "http://www.w3.org/Graphics/SVG/1.1/DTD/svg11.dtd">
<svg width="100%" height="100%" viewBox="0 0 1359 269" version="1.1" xmlns="http://www.w3.org/2000/svg" xmlns:xlink="http://www.w3.org/1999/xlink" xml:space="preserve" xmlns:serif="http://www.serif.com/" style="fill-rule:evenodd;clip-rule:evenodd;stroke-linejoin:round;stroke-miterlimit:2;">
    <g transform="matrix(1,0,0,1,-8227.291663,-3703.489685)">
        <g transform="matrix(9.624493,0,0,9.624493,5249.265368,-1579.11189)">
            <path d="M309.422,576.214L318.285,562.395L309.959,549.261L317.844,549.261L320.286,553.412C321.035,554.746 321.718,556.065 322.337,557.367C322.521,557.756 322.707,558.142 322.893,558.525C323.08,558.142 323.265,557.756 323.448,557.367C324.058,556.065 324.754,554.746 325.535,553.412L328.05,549.261L335.813,549.261L327.329,562.448L336.204,576.214L328.343,576.214L325.413,571.332C324.648,570.013 323.948,568.707 323.313,567.413C323.118,567.015 322.922,566.62 322.727,566.23C322.538,566.62 322.351,567.015 322.166,567.413C321.564,568.707 320.88,570.013 320.115,571.332L317.21,576.214L309.422,576.214Z" style="fill:white;fill-rule:nonzero;"/>
        </g>
        <g transform="matrix(9.624493,0,0,9.624493,5249.265368,-1579.11189)">
            <path d="M343.038,560.028L354.605,560.028M343,564.618C343.043,565.953 343.302,567.1 343.774,568.06C344.295,569.118 345.032,569.92 345.984,570.465C346.936,571.01 348.047,571.283 349.316,571.283C350.179,571.283 350.964,571.157 351.672,570.904C352.38,570.652 352.982,570.286 353.479,569.806C353.975,569.326 354.354,568.736 354.614,568.036L361.23,568.988C360.807,570.55 360.046,571.913 358.948,573.077C357.849,574.241 356.474,575.144 354.822,575.787C353.17,576.43 351.286,576.752 349.17,576.752C346.419,576.752 344.047,576.182 342.053,575.043C340.059,573.903 338.521,572.292 337.439,570.209C336.356,568.125 335.815,565.676 335.815,562.86C335.815,560.077 336.352,557.639 337.427,555.548C338.501,553.456 340.014,551.821 341.968,550.641C343.921,549.461 346.207,548.871 348.828,548.871C350.635,548.871 352.311,549.164 353.857,549.75C355.403,550.335 356.758,551.202 357.922,552.35C359.086,553.497 359.989,554.929 360.632,556.647C361.275,558.364 361.596,560.345 361.596,562.591L361.596,564.618L343,564.618M354.605,560.028C354.513,559.121 354.313,558.308 354.004,557.586C353.564,556.561 352.917,555.768 352.063,555.206C351.208,554.645 350.154,554.364 348.901,554.364C347.648,554.364 346.582,554.649 345.703,555.218C344.824,555.788 344.153,556.569 343.689,557.562C343.343,558.303 343.126,559.124 343.038,560.028" style="fill:white;fill-rule:nonzero;"/>
        </g>
        <g transform="matrix(1,0,0,1,5778.083459,2837.659248)">
            <g transform="matrix(9.624493,0,0,9.624493,572.260848,-4416.771138)">
                <path d="M317.583,564.618C317.626,565.953 317.885,567.1 318.357,568.06C318.878,569.118 319.615,569.92 320.567,570.465C321.519,571.01 322.63,571.283 323.899,571.283C324.762,571.283 325.547,571.157 326.255,570.904C326.963,570.652 327.565,570.286 328.062,569.806C328.558,569.326 328.937,568.736 329.197,568.036L335.813,568.988C335.39,570.55 334.629,571.913 333.531,573.077C332.432,574.241 331.057,575.144 329.405,575.787C327.753,576.43 325.869,576.752 323.753,576.752C321.002,576.752 318.63,576.182 316.636,575.043C314.642,573.903 313.104,572.292 312.022,570.209C310.939,568.125 310.398,565.676 310.398,562.86C310.398,560.077 310.935,557.639 312.01,555.548C313.084,553.456 314.597,551.821 316.551,550.641C318.504,549.461 320.79,548.871 323.411,548.871C325.218,548.871 326.894,549.164 328.44,549.75C329.986,550.335 331.341,551.202 332.505,552.35C333.669,553.497 334.572,554.929 335.215,556.647C335.858,558.364 336.179,560.345 336.179,562.591L336.179,564.618L317.583,564.618M317.621,560.028L329.188,560.028C329.188,560.028 329.227,560.41 329.188,560.028C329.096,559.121 328.896,558.308 328.587,557.586C328.147,556.561 327.5,555.768 326.646,555.206C325.791,554.645 324.737,554.364 323.484,554.364C322.231,554.364 321.165,554.649 320.286,555.218C319.407,555.788 318.736,556.569 318.272,557.562C317.926,558.303 317.709,559.124 317.621,560.028" style="fill:white;fill-rule:nonzero;"/>
            </g>
        </g>
        <g transform="matrix(1,0,0,1,5778.083459,2837.659248)">
            <g transform="matrix(3.634223,0,0,3.634223,-9807.579296,-15799.469813)">
                <path d="M3562.589,4610.341L3567.747,4601.406L3578.705,4601.406C3579.515,4599.21 3580.542,4597.25 3581.787,4595.529C3582.074,4595.132 3582.373,4594.748 3582.683,4594.376C3585.118,4591.459 3588.014,4589.276 3591.37,4587.828C3594.726,4586.381 3598.291,4585.657 3602.064,4585.657C3602.238,4585.657 3602.411,4585.658 3602.584,4585.661C3605.479,4585.711 3608.173,4586.176 3610.667,4587.056C3611.847,4587.472 3612.983,4587.982 3614.074,4588.585C3617.605,4590.537 3620.391,4593.367 3622.431,4597.074C3622.745,4597.645 3623.035,4598.235 3623.3,4598.844C3624.113,4597.193 3625.074,4595.704 3626.182,4594.376C3628.617,4591.459 3631.513,4589.276 3634.869,4587.828C3638.225,4586.381 3641.79,4585.657 3645.563,4585.657C3650.038,4585.657 3654.041,4586.633 3657.573,4588.585C3661.104,4590.537 3663.89,4593.367 3665.93,4597.074C3667.97,4600.782 3668.99,4605.311 3668.99,4610.664L3668.99,4659.493L3649.314,4659.493L3649.314,4614.415C3649.314,4610.247 3648.195,4607.143 3645.958,4605.103C3643.72,4603.063 3640.956,4602.043 3637.666,4602.043C3635.165,4602.043 3633.004,4602.58 3631.184,4603.655C3629.363,4604.73 3627.959,4606.233 3626.972,4608.163C3625.985,4610.093 3625.491,4612.375 3625.491,4615.007L3625.491,4659.493L3605.815,4659.493L3605.815,4614.415C3605.815,4610.247 3604.696,4607.143 3602.458,4605.103C3600.319,4603.153 3597.699,4602.135 3594.598,4602.049C3592.441,4602.109 3590.488,4602.634 3588.737,4603.622C3586.873,4604.675 3585.392,4606.222 3584.295,4608.262C3583.199,4610.302 3582.65,4612.813 3582.65,4615.797L3582.65,4659.493L3562.974,4659.493L3562.974,4613.823C3562.974,4612.573 3562.845,4611.413 3562.589,4610.341ZM3558.207,4603.93C3557.523,4603.467 3556.79,4603.09 3556.006,4602.797C3554.659,4602.294 3553.165,4602.043 3551.523,4602.043C3549.198,4602.043 3547.103,4602.569 3545.238,4603.622C3543.374,4604.675 3541.893,4606.222 3540.796,4608.262C3539.699,4610.302 3539.151,4612.813 3539.151,4615.797L3539.151,4659.493L3519.54,4659.493L3519.54,4586.516L3538.644,4586.516L3538.644,4599.142L3539.305,4599.142C3539.405,4598.804 3539.51,4598.473 3539.621,4598.149C3540.966,4594.188 3543.064,4591.158 3545.915,4589.061C3549,4586.791 3552.658,4585.657 3556.888,4585.657C3557.376,4585.657 3557.873,4585.666 3558.38,4585.685C3558.768,4585.666 3559.159,4585.657 3559.552,4585.657C3562.131,4585.657 3564.486,4586.051 3566.618,4586.841C3568.837,4587.663 3570.814,4588.914 3572.549,4590.592C3573.674,4591.681 3574.69,4592.952 3575.596,4594.406L3563.705,4594.406L3558.207,4603.93Z" style="fill:white;"/>
            </g>
        </g>
    </g>
</svg>
