<?xml version="1.0" encoding="UTF-8" standalone="no"?>
<!DOCTYPE svg PUBLIC "-//W3C//DTD SVG 1.1//EN" "http://www.w3.org/Graphics/SVG/1.1/DTD/svg11.dtd">
<svg width="100%" height="100%" viewBox="0 0 1330 269" version="1.1" xmlns="http://www.w3.org/2000/svg" xmlns:xlink="http://www.w3.org/1999/xlink" xml:space="preserve" xmlns:serif="http://www.serif.com/" style="fill-rule:evenodd;clip-rule:evenodd;stroke-linejoin:round;stroke-miterlimit:2;">
    <g transform="matrix(1,0,0,1,-4435.195346,-2265.830437)">
        <g transform="matrix(1,0,0,1,0,1400)">
            <g id="xerne" transform="matrix(1,0,0,1,44.206776,8.392472)">
                <g transform="matrix(9.624493,0,0,9.624493,1412.962275,-4425.16361)">
                    <g transform="matrix(50,0,0,50,308.542734,576.214405)">
                        <path d="M0.018,-0L0.228,-0.328L0.227,-0.226L0.028,-0.539L0.186,-0.539L0.235,-0.456C0.25,-0.429 0.264,-0.403 0.276,-0.377C0.288,-0.351 0.301,-0.326 0.313,-0.301L0.26,-0.301C0.273,-0.326 0.286,-0.351 0.298,-0.377C0.31,-0.403 0.324,-0.429 0.34,-0.456L0.39,-0.539L0.545,-0.539L0.343,-0.224L0.343,-0.326L0.553,-0L0.396,-0L0.337,-0.098C0.322,-0.124 0.308,-0.15 0.295,-0.176C0.283,-0.202 0.27,-0.227 0.257,-0.251L0.31,-0.251C0.297,-0.227 0.285,-0.202 0.272,-0.176C0.26,-0.15 0.247,-0.124 0.231,-0.098L0.173,-0L0.018,-0Z" style="fill:white;fill-rule:nonzero;"/>
                    </g>
                    <g transform="matrix(50,0,0,50,333.459726,576.214405)">
                        <path d="M0.304,0.011C0.249,0.011 0.202,-0.001 0.162,-0.023C0.122,-0.046 0.091,-0.078 0.07,-0.12C0.048,-0.162 0.037,-0.211 0.037,-0.267C0.037,-0.323 0.048,-0.372 0.069,-0.413C0.091,-0.455 0.121,-0.488 0.16,-0.511C0.199,-0.535 0.245,-0.547 0.297,-0.547C0.333,-0.547 0.367,-0.541 0.398,-0.529C0.429,-0.518 0.456,-0.5 0.479,-0.477C0.503,-0.454 0.521,-0.426 0.533,-0.391C0.546,-0.357 0.553,-0.317 0.553,-0.272L0.553,-0.232L0.095,-0.232L0.095,-0.324L0.482,-0.324L0.414,-0.3C0.414,-0.328 0.41,-0.352 0.401,-0.373C0.392,-0.393 0.379,-0.409 0.362,-0.42C0.345,-0.431 0.324,-0.437 0.299,-0.437C0.274,-0.437 0.252,-0.431 0.235,-0.42C0.217,-0.409 0.204,-0.393 0.195,-0.373C0.185,-0.353 0.181,-0.33 0.181,-0.305L0.181,-0.24C0.181,-0.21 0.186,-0.184 0.196,-0.163C0.207,-0.142 0.221,-0.126 0.24,-0.115C0.26,-0.104 0.282,-0.099 0.307,-0.099C0.324,-0.099 0.34,-0.101 0.354,-0.106C0.368,-0.111 0.38,-0.119 0.39,-0.128C0.4,-0.138 0.408,-0.15 0.413,-0.164L0.545,-0.145C0.537,-0.113 0.522,-0.086 0.5,-0.063C0.478,-0.039 0.45,-0.021 0.417,-0.009C0.384,0.004 0.347,0.011 0.304,0.011Z" style="fill:white;fill-rule:nonzero;"/>
                    </g>
                </g>
                <g transform="matrix(0.266853,0,0,0.266853,3262.147372,859.787694)">
                    <path d="M6966.336,168.177L6816.491,168.731L6743.903,280.192C6739.353,273.722 6734.235,267.644 6728.549,261.959C6700.078,233.488 6663.243,219.253 6618.042,219.253C6586.93,219.253 6558.9,226.297 6533.951,240.385C6509.003,254.474 6489.191,275.166 6474.515,302.463C6459.84,329.76 6452.502,363.367 6452.502,403.284L6452.502,987.958L6190.103,987.958L6190.103,15.85L6435.772,15.85L6446.338,252.713L6427.847,252.713C6443.11,194.011 6465.563,146.022 6495.208,108.746C6524.852,71.47 6559.634,44.027 6599.551,26.416C6639.468,8.805 6681.441,-0 6725.467,-0C6795.91,-0 6853.878,22.013 6899.372,66.04C6926.411,92.206 6948.732,126.252 6966.336,168.177ZM7580.308,180.815C7590.85,159.964 7603.186,141.072 7617.317,124.141C7649.896,85.104 7688.64,55.899 7733.547,36.528C7778.454,17.156 7826.15,7.47 7876.634,7.47C7936.51,7.47 7990.076,20.531 8037.331,46.654C8084.586,72.776 8121.862,110.639 8149.158,160.242C8176.455,209.846 8190.103,270.456 8190.103,342.072L8190.103,987.958L7926.824,987.958L7926.824,392.263C7926.824,336.496 7911.855,294.964 7881.917,267.667C7851.979,240.371 7814.996,226.723 7770.97,226.723C7737.509,226.723 7708.599,233.914 7684.237,248.296C7659.876,262.678 7641.091,282.783 7627.883,308.612C7614.675,334.441 7608.071,364.966 7608.071,400.188L7607.761,987.958L7344.482,987.958L7344.482,384.793C7344.482,329.026 7329.513,287.494 7299.575,260.197C7269.636,232.901 7232.654,219.253 7188.627,219.253C7155.167,219.253 7126.256,226.444 7101.895,240.826C7077.534,255.208 7058.749,275.313 7045.541,301.142C7032.333,326.971 7025.729,357.496 7025.729,392.718L7025.729,987.958L6771.255,987.958L6771.255,376.868C6771.255,361.858 6769.871,347.804 6767.102,334.706L6842.176,214.636L6980.232,214.937C6980.232,214.937 7002.395,155.708 7034.974,116.671C7067.554,77.634 7106.298,48.429 7151.205,29.058C7196.112,9.686 7243.807,-0 7294.291,-0C7354.168,-0 7407.733,13.061 7454.989,39.184C7502.244,65.306 7539.52,103.169 7566.816,152.772C7594.113,202.376 7580.308,180.815 7580.308,180.815Z" style="fill:white;fill-rule:nonzero;"/>
                </g>
                <g transform="matrix(9.624493,0,0,9.624493,2485.041213,-4425.16361)">
                    <g transform="matrix(50,0,0,50,308.542734,576.214405)">
                        <path d="M0.304,0.011C0.249,0.011 0.202,-0.001 0.162,-0.023C0.122,-0.046 0.091,-0.078 0.07,-0.12C0.048,-0.162 0.037,-0.211 0.037,-0.267C0.037,-0.323 0.048,-0.372 0.069,-0.413C0.091,-0.455 0.121,-0.488 0.16,-0.511C0.199,-0.535 0.245,-0.547 0.297,-0.547C0.333,-0.547 0.367,-0.541 0.398,-0.529C0.429,-0.518 0.456,-0.5 0.479,-0.477C0.503,-0.454 0.521,-0.426 0.533,-0.391C0.546,-0.357 0.553,-0.317 0.553,-0.272L0.553,-0.232L0.095,-0.232L0.095,-0.324L0.482,-0.324L0.414,-0.3C0.414,-0.328 0.41,-0.352 0.401,-0.373C0.392,-0.393 0.379,-0.409 0.362,-0.42C0.345,-0.431 0.324,-0.437 0.299,-0.437C0.274,-0.437 0.252,-0.431 0.235,-0.42C0.217,-0.409 0.204,-0.393 0.195,-0.373C0.185,-0.353 0.181,-0.33 0.181,-0.305L0.181,-0.24C0.181,-0.21 0.186,-0.184 0.196,-0.163C0.207,-0.142 0.221,-0.126 0.24,-0.115C0.26,-0.104 0.282,-0.099 0.307,-0.099C0.324,-0.099 0.34,-0.101 0.354,-0.106C0.368,-0.111 0.38,-0.119 0.39,-0.128C0.4,-0.138 0.408,-0.15 0.413,-0.164L0.545,-0.145C0.537,-0.113 0.522,-0.086 0.5,-0.063C0.478,-0.039 0.45,-0.021 0.417,-0.009C0.384,0.004 0.347,0.011 0.304,0.011Z" style="fill:white;fill-rule:nonzero;"/>
                    </g>
                </g>
            </g>
        </g>
    </g>
</svg>
